<?xml version="1.0" encoding="UTF-8" standalone="no"?>
<!-- Created with Inkscape (http://www.inkscape.org/) -->

<svg
   version="1.1"
   id="svg1"
   width="257.16269"
   height="59.731846"
   viewBox="0 0 257.16269 59.731845"
   sodipodi:docname="bonjour.png"
   inkscape:export-filename="bonjour.svg"
   inkscape:export-xdpi="96"
   inkscape:export-ydpi="96"
   xmlns:inkscape="http://www.inkscape.org/namespaces/inkscape"
   xmlns:sodipodi="http://sodipodi.sourceforge.net/DTD/sodipodi-0.dtd"
   xmlns="http://www.w3.org/2000/svg"
   xmlns:svg="http://www.w3.org/2000/svg">
  <defs
     id="defs1" />
  <sodipodi:namedview
     id="namedview1"
     pagecolor="#ffffff"
     bordercolor="#000000"
     borderopacity="0.25"
     inkscape:showpageshadow="2"
     inkscape:pageopacity="0.0"
     inkscape:pagecheckerboard="0"
     inkscape:deskcolor="#d1d1d1"
     showgrid="false" />
  <g
     inkscape:groupmode="layer"
     inkscape:label="Image"
     id="g1"
     transform="translate(-32.543447,-14.403811)">
    <path
       style="fill:none;fill-opacity:0;stroke:#000000;stroke-width:1.00157;stroke-dasharray:none"
       d="m 38.302041,20.277551 c -0.900078,0.953315 -1.004221,0.344933 -1.877551,0.563266 -0.135766,0.03394 -0.242747,0.1435 -0.37551,0.187755 -0.236967,0.07899 -0.878678,0.08262 -1.12653,0 -0.08397,-0.02799 -0.103789,-0.159766 -0.187756,-0.187755 -0.118746,-0.03958 -0.263554,0.05598 -0.37551,0 -0.697855,-0.348928 -1.12653,-1.358202 -1.12653,-2.065306 0,-0.135688 -0.06172,-0.941372 0,-1.126531 0.23368,-0.70104 1.479243,-1.241569 2.065306,-1.502041 0.947421,-0.421076 0.227337,0.0247 1.502041,-0.187755 0.0873,-0.01455 0.101889,-0.166289 0.187755,-0.187755 0.182149,-0.04554 0.379156,0.03682 0.563265,0 0.137227,-0.02745 0.25034,-0.12517 0.37551,-0.187755 0.37551,-0.06259 0.748781,-0.140537 1.126531,-0.187755 1.173163,-0.146646 2.396091,-0.05762 3.567347,-0.187755 0.256466,-0.0285 0.494968,-0.155749 0.75102,-0.187756 1.422048,-0.177756 3.980171,-0.12206 5.444898,0 1.909651,0.159138 3.764032,0.752807 5.632654,1.126531 1.492068,0.298414 2.974307,0.546251 4.318367,1.314286 0.153694,0.08783 0.237283,0.264928 0.37551,0.37551 0.901593,0.721274 1.80241,1.239145 2.628572,2.065306 1.128448,1.128448 3.188018,3.210927 2.816326,5.069388 -0.06258,0.187755 -0.12517,0.37551 -0.187755,0.563265 -0.06258,0.06259 -0.159766,0.103789 -0.187755,0.187755 -0.03958,0.118747 0.05598,0.263555 0,0.375511 -0.07916,0.158329 -0.264928,0.237283 -0.37551,0.37551 -0.337188,0.421485 -0.601588,0.892801 -0.938776,1.314286 -0.276454,0.345568 -0.655466,0.598804 -0.938775,0.938775 -0.28892,0.346704 -0.431898,0.807408 -0.751021,1.126531 -0.379584,0.379584 -2.724267,2.113154 -3.004081,2.253061 -1.391528,0.695764 -2.991211,0.893502 -4.318368,1.689796 -1.139172,0.683503 -2.408825,0.735025 -3.567347,1.314286 -0.356969,0.178484 -0.399427,0.187755 -0.75102,0.187755 -0.12517,0 -0.37551,-0.12517 -0.37551,0 0,0.06258 0.12517,0 0.187755,0 0.37551,0 0.75102,0 1.12653,0 1.46085,0 2.879139,0.02784 4.318368,0.187755 2.039257,0.226584 -0.247527,0.134963 2.065306,0.563265 1.305434,0.241747 2.624685,0.405085 3.942857,0.563266 0.92498,0.110997 0.594828,-0.175131 1.502041,0.187755 0.958491,0.383396 2.009073,1.004536 3.004082,1.50204 1.201527,0.600764 0.700979,0.150225 1.50204,0.751021 0.15856,0.392166 0.529749,0.05499 0.751021,0.187755 0.57048,0.342288 0.96981,0.915113 1.502041,1.314286 1.227391,0.920543 3.044331,1.891041 3.379592,3.567347 0.325561,1.627804 0.449049,4.173894 0,5.820408 -0.08868,0.325155 -0.293769,0.611808 -0.375511,0.938776 -0.09107,0.364298 0.08146,0.759962 0,1.12653 -0.123212,0.554458 -1.341604,3.197996 -1.689796,3.755102 -0.140728,0.225166 -0.397392,0.355925 -0.563265,0.563266 -0.675766,0.844708 -1.298353,1.861618 -2.065306,2.628571 -2.043728,2.043728 -4.919819,3.063983 -7.510204,4.130612 -0.569964,0.234691 -1.108545,0.545873 -1.689796,0.751021 -2.215395,0.781904 -0.74759,0.04608 -2.816327,0.563265 -0.326968,0.08174 -0.615958,0.278665 -0.938775,0.37551 -1.633761,0.490129 -3.547308,0.80725 -5.257143,0.938776 -0.374404,0.0288 -0.751021,0 -1.126531,0 -0.438095,0.12517 -0.863958,0.306229 -1.314286,0.37551 -0.742287,0.114198 -1.504635,-0.06237 -2.253061,0 -1.64743,0.137286 -3.218638,0.37551 -4.881633,0.37551 -0.667859,0 -1.730447,0.118395 -2.440816,0 -0.195218,-0.03254 -0.37551,-0.12517 -0.563265,-0.187755 -0.312925,-0.06258 -0.622118,-0.148173 -0.938776,-0.187755 -0.735198,-0.0919 -1.56248,-0.145316 -2.253061,-0.37551 -0.483916,-0.161306 -0.18057,-0.37551 -0.75102,-0.37551 -0.06258,0 0.131777,0.02799 0.187755,0 0.296021,-0.148011 0.25103,-0.109697 0.563265,-0.187755 0.69973,-0.174933 1.185443,-0.563266 1.877551,-0.563266 0.950956,0 -0.400263,0.03036 1.126531,-0.187755 1.501319,-0.214474 3.179954,0 4.693877,0 1.456966,0 2.859331,0.09049 4.318368,0.187755 2.413845,0.160923 4.904697,0 7.322449,0 1.846745,0 3.805191,0.182746 5.632653,0 0.855087,-0.08551 1.587729,-0.187755 2.440816,-0.187755 3.066667,0 6.133334,0 9.2,0 1.458396,0 3.058751,0.160819 4.506123,0 0.196701,-0.02186 0.371263,-0.139754 0.563265,-0.187755 0.589036,-0.147259 1.288516,0.147259 1.877551,0 0.256626,-0.06416 0.283606,-0.283606 0.375511,-0.37551 0.142548,-0.142549 5.070016,0 5.632653,0 3.004081,0 6.008163,0 9.012245,0 1.279615,0 3.65533,0.331518 4.693877,-0.187755 0.33469,-0.167345 1.141496,0.07211 1.502041,0 0.45854,-0.09171 0.699781,-0.392566 1.126531,-0.563266 0.318519,-0.127409 1.058149,-0.204754 1.314289,-0.37551 0.14728,-0.09819 0.27732,-0.228223 0.37551,-0.37551 0.0347,-0.05207 -0.056,-0.159766 0,-0.187755 0.11195,-0.05598 0.25676,0.03958 0.37551,0 0.34748,-0.115827 1.31353,-0.938019 1.50204,-1.126531 0.22693,-0.226932 0.36175,-0.686881 0.56326,-0.938775 0.60913,-0.761414 1.24738,-1.609899 1.50204,-2.628572 0.0607,-0.242865 -0.0792,-0.513527 0,-0.75102 0.028,-0.08397 0.15977,-0.103789 0.18776,-0.187755 0.15918,-0.477531 0.42619,-1.704772 0.56326,-2.253062 0.0876,-0.350443 -0.0706,-0.77368 0,-1.12653 0.0275,-0.137227 0.14351,-0.242747 0.18776,-0.37551 0.11711,-0.351337 0.083,-2.484498 0,-2.816327 -0.20587,-0.823482 -0.56418,-1.691619 -0.93878,-2.440816 -0.13994,-0.279889 -0.42332,-0.471132 -0.56326,-0.751021 -0.34096,-0.681926 -0.69281,-1.411441 -1.31429,-1.877551 -0.40944,-0.307085 -1.60231,-0.941332 -2.0653,-1.12653 -0.4333,-0.173318 -1.05802,0.148009 -1.502044,0 -0.08397,-0.02799 -0.101889,-0.166289 -0.187755,-0.187756 -1.219837,-0.304959 -2.984624,-0.187755 -4.318367,-0.187755 -1.949768,0 -3.884864,-0.05419 -5.820409,0.187755 -0.187755,0.02347 -0.37551,-0.04694 -0.563265,0 -0.792423,0.198106 -1.384436,0.737462 -2.065306,1.126531 -0.530118,0.302924 -0.503565,0.0491 -0.938776,0.37551 -0.698043,0.523533 -1.333317,1.443325 -1.877551,2.065306 -0.128851,0.147259 -0.901961,0.87435 -0.938775,0.938776 -0.128026,0.224046 -0.106155,0.506218 -0.187755,0.75102 -0.08851,0.265526 -0.307628,0.479489 -0.375511,0.751021 -0.611066,2.444265 -0.432131,3.772994 0.375511,6.195918 0.09388,0.281633 -0.187756,0.187755 0,0.563266 0.118746,0.237493 0.479298,0.311365 0.563265,0.563265 0.132798,0.398393 0.181816,0.926897 0.37551,1.314286 0.127595,0.255189 0.435671,0.495831 0.563265,0.75102 0.05598,0.111956 -0.06943,0.271362 0,0.37551 0.264602,0.396903 0.674174,0.729628 0.938776,1.126531 0.03472,0.05207 0,0.12517 0,0.187755 0.06258,0.12517 0.0888,0.276555 0.187755,0.37551 0.09896,0.09896 0.276555,0.0888 0.37551,0.187755 0.108823,0.108823 0.266688,0.642198 0.37551,0.751021 0.08851,0.08851 0.287002,-0.08851 0.375511,0 0.04425,0.04425 0,0.12517 0,0.187755 0.06258,0.06258 0.114111,0.138659 0.187755,0.187755 0.121177,0.08078 0.669706,0.294196 0.75102,0.37551 0.04425,0.04425 -0.05598,0.159766 0,0.187755 0.111956,0.05598 0.256764,-0.03958 0.37551,0 0.586044,0.195348 -0.06258,0.12517 0.187755,0.37551 0.08851,0.08851 0.287002,-0.08851 0.375511,0 0.04425,0.04425 -0.04426,0.143501 0,0.187756 0.08851,0.08851 0.263554,-0.05598 0.37551,0 0.158329,0.07916 0.217181,0.296345 0.37551,0.37551 0.200272,0.100136 0.550748,-0.100136 0.751021,0 0.512221,0.256111 0.781839,0.05464 1.314285,0.187755 1.029937,0.257484 2.096452,0.187755 3.191837,0.187755 0.612015,0 3.959038,0.179665 4.318368,0 0.05598,-0.02799 -0.04425,-0.143501 0,-0.187755 0.221671,-0.221672 1.017572,0.148357 1.314289,0 0.0792,-0.03958 0.0994,-0.182558 0.18775,-0.187755 1.78756,-0.105151 3.64511,0 5.4449,0 2.9415,0 5.88299,0 8.82449,0 0.15113,0 1.55077,0.139027 1.6898,0 0.0443,-0.04425 -0.028,-0.131778 0,-0.187755 0.14263,-0.285278 0.46374,-0.452452 0.56326,-0.751021 0.30404,-0.912114 -0.22421,-3.760574 0,-4.881632 0.12804,-0.640219 0.43555,-1.238995 0.56327,-1.877552 0.28191,-1.409584 -0.39224,1.022386 0,-0.938775 0.0549,-0.274454 0.287,-0.485495 0.37551,-0.75102 0.40845,-0.327727 0.0954,-0.757208 0.18775,-1.126531 0.13723,-0.548926 0.50014,-1.188024 0.75102,-1.689796 0.28629,-0.572571 0.14885,0.343394 0.37551,-0.563265 0.0304,-0.121433 -0.056,-0.263555 0,-0.375511 0.0792,-0.158329 0.27732,-0.228223 0.37551,-0.37551 0.14314,-0.214706 0.055,-0.529749 0.18776,-0.75102 0.29022,-0.483705 0.95148,-0.673032 1.31428,-1.126531 0.0986,-0.123275 0.52507,-0.900572 0.56327,-0.938775 1.69568,-1.69568 0.038,-0.01899 0.75102,-0.375511 0.78139,-0.390695 -0.20072,0.01296 0.18775,-0.37551 0.0868,-0.08679 0.44991,0.05668 0.56327,0 0.78139,-0.390696 -0.20072,0.01296 0.18775,-0.37551 0.16851,-0.168503 0.95803,-0.207007 1.12653,-0.37551 0.0443,-0.04425 -0.056,-0.159766 0,-0.187755 0.11196,-0.05598 0.26356,0.05598 0.37552,0 0.056,-0.02799 -0.0443,-0.143501 0,-0.187755 0.0885,-0.08851 0.26355,0.05598 0.37551,0 0.78139,-0.390696 -0.20072,0.01296 0.18775,-0.375511 0.0939,-0.09388 0.46939,0.09388 0.56327,0 0.33726,-0.337261 -0.81012,-0.138384 0.37551,-0.37551 0.1841,-0.03682 0.37915,0.03682 0.56326,0 0.39746,-0.07949 0.73278,-0.464828 1.12653,-0.563265 0.44387,-0.110967 4.31098,-0.127634 4.69388,0 0.39179,0.130598 0.54698,0.432667 0.93877,0.563265 0.0997,0.03322 0.92243,0.1714 0.93878,0.187755 0.0443,0.04425 -0.0443,0.143501 0,0.187755 0.0443,0.04425 0.1435,-0.04425 0.18776,0 0.0443,0.04425 -0.0443,0.143501 0,0.187755 0.099,0.09896 0.27655,0.0888 0.37551,0.187756 0.0442,0.04425 -0.028,0.131777 0,0.187755 0.39069,0.781391 -0.013,-0.200717 0.37551,0.187755 0.0443,0.04425 -0.028,0.131777 0,0.187755 0.11265,0.225306 0.45061,0.337959 0.56326,0.563265 0.0554,0.110862 0.31323,0.688738 0.37551,0.751021 0.38847,0.388472 -0.0152,-0.593637 0.37551,0.187755 0.028,0.05598 0,0.12517 0,0.187755 0.0626,0.12517 0.11013,0.259069 0.18776,0.37551 0.0776,0.116441 0.31292,0.06258 0.37551,0.187755 0.084,0.167933 -0.13277,0.430503 0,0.563265 0.38847,0.388472 -0.0152,-0.593636 0.37551,0.187756 0.40421,0.808421 -0.40421,-0.432911 0,0.37551 0.0792,0.158329 0.29634,0.217181 0.37551,0.37551 0.18516,0.370321 0.37342,0.746844 0.56326,1.126531 0.40421,0.808421 -0.40421,-0.432911 0,0.37551 0.0396,0.07916 0.12517,0.12517 0.18776,0.187755 0.12517,0.12517 0.29634,0.217181 0.37551,0.37551 0.0344,0.06877 -0.079,0.672036 0,0.751021 0.0443,0.04425 0.1435,-0.04425 0.18775,0 0.0852,0.08523 0.46061,1.29672 0.56327,1.50204 0.19717,0.394337 -0.14004,1.081928 0,1.502041 0.028,0.08397 0.14817,0.108591 0.18775,0.187755 0.17623,0.352444 0,3.794208 0,4.506123 0,0.07731 -0.0497,0.513565 0,0.563265 0.0443,0.04425 0.13178,-0.02799 0.18776,0 0.78139,0.390696 -0.20072,-0.01296 0.18775,0.37551 0.0885,0.08851 0.26356,-0.05598 0.37551,0 0.34566,0.17283 0.0299,0.390436 0.37551,0.563266 0.2246,0.112297 0.70238,-0.0591 0.93878,0 0.13577,0.03394 0.23974,0.153813 0.37551,0.187755 0.65847,0.164618 1.583,0 2.25306,0 1.75238,0 3.50476,0 5.25714,0 1.81497,0 3.62994,0 5.4449,0 0.55732,0 2.16227,0.233154 2.62857,0 0.32459,-0.162291 0.4214,-0.316045 0.75102,-0.563265 0.0946,-0.413656 0.38625,-0.09925 0.56327,-0.187756 0.15833,-0.07916 0.20758,-0.319532 0.37551,-0.37551 0.11875,-0.03958 0.25408,0.03036 0.37551,0 0.57843,-0.144606 2.15536,-1.30663 2.44082,-1.877551 0.056,-0.111955 -0.056,-0.263555 0,-0.37551 0.0559,-0.111803 0.50736,-0.451462 0.56326,-0.563265 0.10001,-0.200022 0.50175,-0.880455 0.56327,-1.126531 0.0546,-0.218433 -0.0725,-0.533455 0,-0.75102 0.0885,-0.265526 0.30762,-0.479489 0.37551,-0.751021 0.0607,-0.242865 -0.0792,-0.513527 0,-0.75102 0.028,-0.08397 0.14817,-0.108591 0.18775,-0.187755 0.15907,-0.318136 0.2865,-0.958222 0.37551,-1.314286 0.0766,-0.306454 -0.14257,-0.841386 0,-1.126531 0.34941,-0.698819 0.37551,-1.401571 0.37551,-2.253061 0,-1.033647 0.20849,-5.236415 -0.18775,-5.632653 -0.13277,-0.132763 -1.10574,0 -1.31429,0 -0.50068,0 0.0626,-0.06259 -0.18775,0.187755 -0.11432,0.114319 -5.07493,0 -5.4449,0 -0.56908,0 -3.7551,-0.07232 -3.7551,0.187755 0,0.06258 0.1435,-0.04425 0.18775,0 0.0443,0.04425 -0.0443,0.143501 0,0.187755 0.099,0.09896 0.26356,0.103789 0.37551,0.187755 0.44954,0.337156 0.39776,0.563266 0.93878,0.563266 1.37687,0 2.75374,0 4.13061,0 0.5408,0 1.16143,0.08806 1.6898,0 1.37348,-0.228914 2.7277,-0.187756 4.13061,-0.187756 2.25306,0 4.50612,0 6.75918,0 0.75102,0 1.50204,0 2.25306,0 0.18776,0 0.56327,0.187756 0.56327,0 0,-0.06258 -0.12517,0 -0.18776,0 -0.31292,0 -0.62585,0 -0.93877,0 -1.2517,0 -2.5034,0 -3.7551,0 -0.3859,0 -5.20653,-0.05062 -5.25715,0 -0.0443,0.04425 0,0.125171 0,0.187756 0,1.940136 0,3.880272 0,5.820408 0,0.732332 0.23062,1.936727 0,2.628571 -0.028,0.08397 -0.16629,0.101889 -0.18775,0.187755 -0.0759,0.303582 0.0759,0.635194 0,0.938776 -0.0339,0.135766 -0.15382,0.239744 -0.18776,0.37551 -0.1178,0.471229 0.11781,1.030813 0,1.502041 -0.0215,0.08587 -0.15976,0.103788 -0.18775,0.187755 -0.13647,0.409396 -0.10286,0.889774 -0.18776,1.314286 -0.0274,0.137227 -0.16031,0.238283 -0.18775,0.37551 -0.11464,0.573196 0,1.286532 0,1.877551 0,1.502041 0,3.004082 0,4.506123 0,0.49694 0.14912,1.242422 0,1.689796 -0.19255,0.57765 -0.30897,1.181202 -0.56327,1.689796 -0.0997,0.199411 0.0552,0.530089 0,0.75102 -0.41001,1.640057 0.10092,-0.389587 -0.56326,0.938775 -0.056,0.111956 0.0303,0.254078 0,0.375511 -0.12376,0.495012 -0.63106,1.091748 -0.93878,1.502041 -1.12314,1.497524 -5.90195,1.528594 -7.5102,1.12653 -0.78457,-0.196142 -1.4417,-0.945486 -1.6898,-1.689796 -0.0198,-0.05937 0.0443,-0.143501 0,-0.187755 -0.0443,-0.04425 -0.15977,0.05598 -0.18775,0 -0.056,-0.111955 0.0396,-0.256763 0,-0.37551 -0.028,-0.08397 -0.15977,-0.103789 -0.18776,-0.187755 -0.14831,-0.444928 -0.0443,-1.153929 0.18776,-1.502041 0.64566,-0.968494 0.52757,-1.671952 1.68979,-2.253061 0.2375,-0.118747 0.32577,-0.444519 0.56327,-0.563266 0.11195,-0.05598 0.26355,0.05598 0.37551,0 0.4755,-0.237751 0.58591,-0.707082 1.12653,-0.938775 0.23718,-0.101649 0.52022,-0.07235 0.75102,-0.187755 0.74814,-0.374069 8.2e-4,-0.375716 0.75102,-0.563266 0.43204,-0.10801 0.89795,-0.125708 1.31428,-0.37551 1.20406,-0.722435 -0.0788,-0.2685 0.56327,-0.37551 0.7915,-0.131917 1.14705,-0.198014 1.87755,-0.563265 0.85928,-0.429641 -0.79672,0.07782 0.56327,-0.375511 0.11874,-0.03958 0.27136,0.06943 0.37551,0 0.14728,-0.09819 0.21718,-0.296345 0.37551,-0.37551 0.25001,-0.125006 0.66086,-0.118278 0.93877,-0.187755 0.44438,-0.111093 0.87783,-0.417779 1.31429,-0.563265 0.32661,-0.10887 0.82208,0.152223 1.12653,0 0.15833,-0.07917 0.21718,-0.296346 0.37551,-0.37551 0.37874,-0.189373 1.07602,-0.478061 1.50204,-0.563266 0.24548,-0.04909 0.51353,0.07917 0.75102,0 0.21407,-0.07136 0.34435,-0.320781 0.56327,-0.37551 0.18214,-0.04554 0.38514,0.05937 0.56326,0 0.0594,-0.01979 -0.056,-0.159766 0,-0.187755 0.20252,-0.101258 0.71819,0.05515 0.93878,0 0.13576,-0.03394 0.23828,-0.16031 0.37551,-0.187755 0.41095,-0.08219 5.93467,-0.08708 6.19591,0 0.13277,0.04425 0.24275,0.143501 0.37551,0.187755 0.53808,0.179357 1.49009,0 2.06531,0 1.75238,0 3.50476,0 5.25714,0 1.58775,0 4.793,0.233821 6.19592,0 0.31478,-0.05246 0.62124,-0.156001 0.93878,-0.187755 0.66335,-0.06634 1.40486,0.110074 2.0653,0 0.49202,-0.082 1.24353,-0.340129 1.6898,-0.563265 0.0792,-0.03958 0.10097,-0.170398 0.18776,-0.187756 0.24547,-0.0491 0.50319,0.0354 0.75102,0 0.66069,-0.09438 0.53158,-0.265791 1.12653,-0.563265 0.3195,-0.159751 0.82411,-0.2243 1.12653,-0.37551 0.75805,-0.379027 0.43446,-0.385123 1.12653,-0.938776 1.99463,-1.595703 2.58628,-3.125856 3.00408,-5.632653 0.19588,-1.175297 -0.0176,-2.681393 -0.37551,-3.755102 -0.0792,-0.237493 0.0792,-0.513527 0,-0.75102 -0.0198,-0.05937 -0.13568,0.03472 -0.18776,0 -0.14728,-0.09819 -0.29634,-0.217181 -0.37551,-0.37551 -0.1154,-0.230803 -0.0919,-0.511432 -0.18775,-0.751021 -0.26002,-0.650054 -1.09572,-1.095718 -1.50204,-1.502041 -0.099,-0.09896 -0.0888,-0.276554 -0.18776,-0.37551 -0.0443,-0.04425 -0.13177,0.02799 -0.18775,0 -0.23933,-0.119663 -0.50283,-0.480536 -0.75102,-0.563265 -0.11875,-0.03958 -0.26818,0.0644 -0.37551,0 -0.22769,-0.136612 -0.32577,-0.444519 -0.56327,-0.563266 -0.16793,-0.08397 -0.38894,0.06973 -0.56326,0 -1.62582,-0.650326 1.03384,-0.168741 -0.93878,-0.563265 -0.35774,-0.07155 -0.77302,0.08838 -1.12653,0 -0.33983,0.113165 -0.34919,-0.304152 -0.56327,-0.37551 -0.29119,-0.09707 -4.41734,-0.06913 -4.69387,0 -0.90666,0.226665 0.009,0.08922 -0.56327,0.37551 -0.79507,0.397534 -1.69043,0.676298 -2.44081,1.126531 -0.93878,0.563265 0,0.187755 -0.56327,0.563265 -1.42495,0.949964 -2.73767,2.525804 -3.37959,4.130612 -0.0626,0.187755 -0.12517,0.375511 -0.18776,0.563266 0,0.12517 0.0396,0.256763 0,0.37551 -0.028,0.08397 -0.15976,0.103788 -0.18775,0.187755 -0.10749,0.322467 0.0679,3.703222 0.18775,3.942857 0.0898,0.179519 0.27809,0.84135 0.37551,0.938776 0.44331,0.443307 -0.0987,-1.047244 0.37551,0.37551 0.18836,0.565074 0.76365,0.976644 0.93878,1.502041 0.0396,0.118747 -0.056,0.263555 0,0.37551 0.21767,0.435343 0.57304,0.385287 0.75102,0.563265 0.45072,0.450716 1.38699,2.007781 1.87755,2.253062 0.11379,0.0569 0.48459,0.109077 0.56327,0.187755 0.0443,0.04425 -0.0443,0.143501 0,0.187755 0.21582,0.215823 2.40686,-0.204732 2.81632,0 0.27108,0.135539 0.47994,0.239971 0.75102,0.37551 0.35405,0.177025 0.93389,-0.1268 1.31429,0 1.14009,0.380032 2.54843,0.187755 3.7551,0.187755 0.70743,0 1.17658,0.08762 1.87755,0.187755 1.44478,0.206397 3.04942,0 4.50612,0 2.19048,0 4.38096,0 6.57143,0 0.27082,0 2.69172,0.156184 3.00408,0 0.20184,-0.100915 0.40371,-0.215949 0.56327,-0.37551 0.0443,-0.04425 -0.0443,-0.143501 0,-0.187755 0.0443,-0.04425 0.1435,0.04425 0.18776,0 0.0885,-0.08851 -0.0885,-0.287002 0,-0.37551 0.21202,-0.212022 0.81843,-0.577744 0.93877,-0.938776 0.0384,-0.115157 0.35954,-1.290335 0.37551,-1.314286 0.0776,-0.11644 0.27656,-0.0888 0.37551,-0.187755 0.19186,-0.191855 0.14024,-0.701195 0.18776,-0.938775 0.33966,-1.698304 0.0178,0.509985 0.37551,-0.563266 0.0594,-0.17812 -0.084,-0.395332 0,-0.563265 0.15962,-0.319256 0.41099,-0.634224 0.56326,-0.938775 0.10787,-0.215744 0.0539,-0.483383 0.18776,-0.751021 0.10091,-0.20183 0.30415,-0.349191 0.37551,-0.563265 0.0563,-0.16898 -0.0563,-0.394286 0,-0.563265 0.38847,-1.165416 -0.0152,0.624008 0.37551,-0.938776 0.1074,-0.429616 0.002,-0.568221 0.18775,-1.126531 0.0885,-0.265525 0.287,-0.485494 0.37551,-0.75102 0.15335,-0.460028 0.0693,-1.028308 0.18776,-1.502041 0.0339,-0.135766 0.16031,-0.238283 0.18775,-0.37551 0.10084,-0.504173 0,-1.174076 0,-1.689796 0,-0.12517 0.12517,-0.37551 0,-0.37551 -0.18775,0 0,0.37551 0,0.563265 0,0.438095 0,0.876191 0,1.314286 0,0.438642 -0.18717,1.315448 0,1.689796 0.16869,0.337379 0.27512,0.724945 0.37551,1.12653 0.0455,0.18215 -0.13276,0.430503 0,0.563266 0.0443,0.04425 0.1435,-0.04425 0.18776,0 0.17803,0.178036 -0.0697,1.035388 0,1.314285 0.0936,0.37422 0.37551,0.745852 0.37551,1.126531 0,0.222865 0.12047,1.247006 0.18775,1.314286 0.42342,0.42342 0.0486,-1.398347 0.37551,0.563265 0.0412,0.246934 -0.11195,0.52711 0,0.751021 0.13554,0.271079 0.23997,0.479941 0.37551,0.75102 0.056,0.111956 -0.056,0.263555 0,0.37551 0.0396,0.07916 0.15977,0.103789 0.18776,0.187755 0.0396,0.118747 -0.0694,0.271363 0,0.375511 0.0776,0.11644 0.29788,0.07131 0.37551,0.187755 0.0694,0.104147 -0.0396,0.256763 0,0.37551 0.028,0.08397 0.15977,0.103788 0.18775,0.187755 0.16703,0.501063 0.21783,1.14658 0.75102,1.502041 0.11645,0.07763 0.27656,0.0888 0.37551,0.187755 0.0752,0.07515 0.10169,0.238597 0.37552,0.37551 0.10953,0.05477 1.23932,0.07496 1.31428,0 0.0443,-0.04425 -0.0442,-0.143501 0,-0.187755 0.0162,-0.01623 2.76578,-0.315934 3.00408,-0.37551 0.33983,0.113165 0.34919,-0.304152 0.56327,-0.37551 0.18031,-0.0601 0.57082,0.0901 0.75102,0 0.2253,-0.112653 0.33796,-0.450613 0.56326,-0.563266 0.23039,-0.115195 0.49622,-0.205643 0.75102,-0.37551 0.2289,-0.152598 0.48826,-0.676008 0.56327,-0.75102 0.15956,-0.159562 0.4037,-0.215949 0.56326,-0.375511 0.18998,-0.189979 0.26553,-0.755468 0.37551,-0.938775 -0.4633,-0.568426 0.51071,-0.322951 0.56327,-0.37551 0.0915,-0.09148 0.1394,-0.793708 0.18776,-0.938776 0.0382,-0.11458 0.33731,-0.448685 0.37551,-0.563265 0.0792,-0.237494 -0.0607,-0.508155 0,-0.751021 0.0339,-0.135766 0.15381,-0.239744 0.18775,-0.37551 0.0455,-0.182149 -0.084,-0.395332 0,-0.563265 0.0396,-0.07917 0.16629,-0.101889 0.18776,-0.187755 0.19143,-0.765747 -0.19144,-1.67507 0,-2.440817 0.15989,-0.639594 0.18775,-0.838865 0.18775,-1.50204 0,-0.751021 0,-1.502041 0,-2.253062 0,-0.37551 0,-0.75102 0,-1.12653 0,-0.06258 0.0626,-0.187755 0,-0.187755 -0.12517,0 0,0.25034 0,0.37551 0,0.62585 0,1.251701 0,1.877551 0,2.315646 0,4.631292 0,6.946939 0,0.599573 -0.18765,1.502351 0,2.065306 0.0885,0.265526 0.287,0.485495 0.37551,0.75102 0.0396,0.118747 -0.056,0.263555 0,0.375511 0.30755,0.615105 0.61864,0.68483 1.12653,0.938775 0.78139,0.390696 -0.20072,-0.01296 0.18776,0.37551 0.12309,0.123089 0.65695,0.09369 0.75102,0.187755 0.0752,0.07515 0.10168,0.238598 0.37551,0.375511 0.30041,0.150204 0.82612,-0.150204 1.12653,0 1.54244,0.771222 3.47778,0.563265 5.25714,0.563265 1.69631,0 4.25788,0.405752 5.82041,-0.37551 0.91968,-0.459842 1.93475,-0.914323 2.81633,-1.502041 0.16476,-0.109841 1.68268,-1.856221 1.68979,-1.877551 0.0396,-0.118747 -0.0644,-0.268178 0,-0.37551 0.13661,-0.227687 0.40395,-0.350845 0.56327,-0.563266 0.34731,-0.463089 0.44901,-1.118547 0.56326,-1.689796 0.0985,-0.492295 0.44686,-0.848674 0.56327,-1.314285 0.0607,-0.242866 -0.0607,-0.508155 0,-0.751021 0.0339,-0.135766 0.1435,-0.242747 0.18775,-0.37551 0.0792,-0.237494 -0.0607,-0.508155 0,-0.75102 0.0215,-0.08587 0.16629,-0.10189 0.18776,-0.187756 0.17546,-0.701846 0,-1.708184 0,-2.440816 0,-1.292141 -0.12884,-1.958495 -0.37551,-3.191837 -0.0491,-0.245478 0.11195,-0.527109 0,-0.75102 -0.028,-0.05598 -0.1435,0.04425 -0.18776,0 -0.38847,-0.388472 0.59364,0.01519 -0.18775,-0.37551 -0.056,-0.02799 -0.1435,0.04425 -0.18776,0 -0.0443,-0.04425 0.0443,-0.143501 0,-0.187755 -0.11042,-0.11042 -1.12459,-0.377451 -1.31428,-0.187756 -0.0443,0.04425 0.0443,0.143501 0,0.187756 -1.00136,0.50068 0.18775,-0.187756 -0.56327,0.563265 -0.22868,0.228682 -0.41948,0.08795 -0.56326,0.37551 -0.028,0.05598 0,0.12517 0,0.187755 -0.0626,0.12517 -0.10379,0.263555 -0.18776,0.37551 0.16066,0.871072 -0.4037,0.215949 -0.56326,0.375511 -0.19231,0.192308 0.12404,1.186855 0.18775,1.314285 0.37424,0.748484 1.07803,1.008401 1.6898,1.314286 0.20027,0.100136 0.55074,-0.100136 0.75102,0 0.67242,0.336211 1.64748,0.187755 2.44081,0.187755 0.44835,0 1.2673,0.140835 1.6898,0 0.73044,-0.24348 0.89089,-0.363539 1.6898,-0.563265 0.18775,-0.04694 0.37551,0.09388 0.56326,0 0.056,-0.02799 0,-0.12517 0,-0.187755 0.18776,-0.06258 0.37126,-0.139755 0.56327,-0.187755 0.15582,-0.03896 0.42103,0.07112 0.56326,0 0.12019,-0.0601 0.67458,-0.299071 0.75102,-0.375511 0.0443,-0.04425 -0.0594,-0.167964 0,-0.187755 0.42932,-0.143105 0.91777,0.0105 1.31429,-0.187755 0.24082,-0.120412 0.50104,-0.479938 0.75102,-0.563265 0.501,-0.167 0.97681,-0.05645 1.50204,-0.187755 0.0188,-0.0047 0.85758,-0.348444 0.93877,-0.37551 0.67858,-0.226194 1.93362,0 2.62858,0 0.12286,0 2.4802,-0.336125 2.62857,-0.187756 0.0885,0.08851 -0.056,0.263555 0,0.375511 0.39069,0.781391 -0.013,-0.200717 0.37551,0.187755 0.27241,0.272417 0.0722,0.779864 0.18775,1.12653 0.056,0.167934 0.29635,0.217182 0.37551,0.375511 0.20027,0.400544 -0.20027,1.101496 0,1.50204 0.61728,1.234548 -0.15185,2.959923 0.18776,4.318368 0.0774,0.309594 0.0868,0.636029 0.18775,0.938775 0.028,0.08397 0.15977,0.103789 0.18776,0.187756 0.0792,0.237493 -0.093,0.518585 0,0.75102 0.11622,0.290544 0.46431,0.454153 0.56326,0.75102 0.0396,0.118747 -0.0396,0.256764 0,0.375511 0.056,0.167933 0.29635,0.217181 0.37551,0.37551 0.056,0.111955 -0.056,0.263555 0,0.37551 0.0792,0.158329 0.29635,0.217181 0.37551,0.37551 0.028,0.05598 -0.0443,0.143501 0,0.187755 0.13995,0.139945 0.42332,0.04781 0.56327,0.187755 0.0442,0.04425 -0.056,0.159767 0,0.187756 0.25081,0.125407 0.66994,-0.08961 0.93877,0 0.75165,0.250549 1.49878,-8.18e-4 2.25307,0.187755 1.41702,0.354255 3.0297,0.187755 4.50612,0.187755 2.44081,0 4.88163,0 7.32245,0"
       id="path3" />
  </g>
</svg>
