<svg fill="none" height="853" viewBox="0 0 858 853" width="858" xmlns="http://www.w3.org/2000/svg"><path d="m523.511.205078c-28.278.796572-68.789 6.315612-97.863 13.314022-77.324 18.6624-122.557 41.2507-173.253 86.4839-7.681 6.828-25.661 24.978-34.025 34.253-17.923 19.971-43.811 53.256-61.563 79.201-5.121 7.453-5.178 7.51-3.129 2.617.91-2.333 1.707-4.893 1.707-5.803 0-3.244-4.609-3.585-7.795-.626-.911.853-3.13 2.788-4.95 4.267-4.609 3.926-18.435 18.89-28.165 30.554-44.7211 53.484-73.7957 106.626-93.1408 170.408-19.51585 64.294-25.83147 130.523-17.86582 187.249 5.17767 36.529 15.30542 69.472 30.38322 98.376 19.459 37.325 32.2609 55.646 54.0526 77.381 10.6968 10.697 16.3868 15.59 30.7248 26.4 34.764 26.344 71.861 41.08 117.55 46.77 11.949 1.479 40.511 2.105 53.484 1.138 80.282-6.031 170.123-40.796 262.297-101.619 45.973-30.383 83.924-60.937 123.468-99.514 47.964-46.769 82.387-90.524 110.608-140.48 4.268-7.624 17.923-34.423 22.475-44.209 22.702-48.59 40.34-108.674 46.087-156.468 2.162-17.752 2.617-26.628 2.617-49.501s-.398-30.155-2.617-47.111c-5.576-43.185-19.801-79.713-41.877-107.536-5.462-6.9416-20.369-21.7919-27.481-27.4816-16.956-13.4847-34.253-24.2383-59.458-36.8127-19.743-9.8432-25.263-12.2898-39.658-17.6951-44.38-16.50022-104.179-25.20555-162.613-23.555522zm35.561 57.068222c72.203 4.2103 125.573 20.0847 176.269 52.4027 11.322 7.226 16.102 10.753 23.157 17.126 9.388 8.421 19.971 20.881 25.262 29.757 4.723 7.852 11.323 27.937 14.509 44.096 3.187 16.614 4.495 29.871 4.95 50.639 1.423 62.758-13.939 127.962-45.29 192.029-30.725 62.871-80.339 124.89-147.763 184.803-38.633 34.309-79.941 64.521-126.085 92.23-30.895 18.549-66.058 36.244-95.075 47.908-47.737 19.231-83.583 27.026-124.094 27.083-34.309.057-64.18-5.405-93.312-17.069-18.207-7.283-33.91-17.24-53.199-33.74-42.1607-36.016-71.1216-90.638-81.5907-153.851-3.5276-21.507-4.6087-34.707-4.6087-58.889 0-38.576 4.7794-75.446 15.1347-116.128 14.9641-59.173 38.1214-104.691 86.3137-169.668 8.534-11.493 11.493-15.078 7.055-8.534-13.997 20.653-37.723 63.44-48.1921 86.939-8.9329 19.914-16.9554 42.275-22.2469 61.62-2.6173 9.616-2.6173 9.957-1.7638 11.835 1.4793 3.015 2.788 2.56 5.2915-1.935 25.7745-46.371 55.5323-85.517 109.9833-144.918 20.539-22.361 71.235-74.991 86.597-89.841 29.587-28.619 58.719-49.785 89.842-65.1476 45.347-22.4745 96.896-35.6178 152.769-38.9179 7.283-.4552 37.439-.3413 46.087.1708z" fill="#000"/></svg>