<svg fill="none" height="902" viewBox="0 0 959 902" width="959" xmlns="http://www.w3.org/2000/svg"><path d="m512.31 1.3822c-15.248 1.08106-47.339 5.34839-65.034 8.7053-19.516 3.6984-55.418 13.1433-76.015 19.971-51.321 16.9555-91.32 39.6007-140.024 79.2015-35.561 28.904-65.433 59.97-87.395 90.865-2.788 3.869-7.681 9.502-12.916 14.793-37.6089 38.122-72.6578 89.216-95.1323 138.773-16.9554 37.496-28.56252 76.243-33.00052 110.609-7.05529 54.565 3.18626 115.331 29.01772 171.717 2.788 6.145 11.8347 24.01 13.2571 26.343.7397 1.138 3.357 5.804 5.8036 10.356 5.9742 11.038 10.4691 18.89 15.2485 26.457 21.7917 34.651 51.3219 68.163 83.2409 94.62 51.777 42.844 97.295 68.221 154.704 86.314 33.627 10.583 66.457 17.012 101.562 19.971 14.111 1.195 44.722 1.365 58.605.341 54.223-4.096 108.219-16.841 160.166-37.837 51.379-20.767 106.74-55.076 153.339-95.132 20.142-17.24 46.371-43.242 63.497-62.872 23.158-26.571 40.455-50.354 55.134-75.901 5.519-9.73 22.019-42.104 25.149-49.558 4.836-11.493 6.657-15.988 9.729-24.75.968-2.674 2.902-8.023 4.268-11.949 5.746-16.102 13.143-44.095 16.557-62.871 10.298-56.443 8.079-112.657-6.714-167.051-3.926-14.566-11.38-35.96-16.273-46.884-.569-1.252-1.934-4.324-3.015-6.828-3.3-7.624-12.973-26.229-18.264-35.276-37.154-62.929-97.693-120.793-170.067-162.5561-19.914-11.4364-54.11-28.0505-72.658-35.1626-37.325-14.3951-69.643-21.84867-105.545-24.46598-9.274-.682742-37.325-.625857-47.225.05688zm45.347 80.9652c22.702 2.6172 43.413 6.9414 63.043 13.2001 40.34 12.8015 72.715 28.3915 108.674 52.3455 18.776 12.518 26.856 18.378 38.008 27.652 32.545 27.084 60.026 57.353 80.68 88.704 7.112 10.867 10.64 17.808 16.557 32.659 11.835 29.53 18.037 55.02 20.996 86.484 1.308 13.826 1.308 42.787 0 56.328-6.828 69.814-31.18 125.858-80.624 185.486-12.631 15.249-19.914 23.214-37.439 40.739-41.819 41.763-78.518 69.642-130.636 99.229-30.441 17.24-78.178 36.187-108.39 43.015-22.361 5.063-40.284 7.681-61.734 9.046-11.778.74-44.664.74-56.328 0-47.567-3.072-99.514-15.419-142.813-33.854-11.152-4.779-16.899-7.567-26.742-13.086-45.745-25.547-88.589-63.043-119.883-104.862-14.964-19.971-27.1968-40.625-36.9263-62.474-16.3296-36.585-25.2625-72.146-27.3677-109.47-1.65-28.904 3.5845-65.376 14.3382-100.083 11.8346-38.235 31.3508-77.551 58.7748-118.404 15.363-22.873 38.178-50.411 48.249-58.206 5.007-3.926 24.466-17.069 35.22-23.84 25.319-15.931 63.725-36.642 97.295-52.403 2.332-1.081 13.598-6.372 25.034-11.777 11.437-5.406 25.377-11.778 31.066-14.225 42.389-18.2638 85.859-28.9605 133.937-33.0002 9.616-.7966 47.908-.2845 57.011.7966z" fill="#000"/></svg>