<svg fill="none" height="457" viewBox="0 0 503 457" width="503" xmlns="http://www.w3.org/2000/svg"><path d="m276.05 1.08102c-58.775 4.21042-108.561 27.65218-153.396 72.20288-10.127 10.0709-14.964 15.6468-24.5794 28.4491-14.1675 18.89-25.3194 36.642-33.9109 53.768-8.7054 17.524-13.8261 32.033-16.2727 46.087-1.3087 7.51-2.4466 23.954-1.7069 24.693.512.512.6258-.227 1.7638-9.9 3.6414-31.635 20.4262-65.204 54.5081-109.243 15.248-19.7435 28.904-33.6265 48.533-49.3302 22.304-17.8089 43.185-29.416 68.163-37.723 21.849-7.2829 40.739-10.63985 63.782-11.20882 19.858-.51209 33.684 1.13792 54.167 6.31562 31.692 8.0794 56.897 19.402 77.494 34.8212 33.171 24.8074 62.36 66.6842 73.569 105.4882 9.445 32.659 7.908 65.546-4.837 102.7-8.762 25.433-20.653 47.794-37.552 70.553-13.826 18.605-31.806 36.983-50.525 51.549-7.909 6.145-19.8 14.566-27.937 19.743-41.876 26.628-91.32 44.21-134.96 47.965-10.185.853-30.782.398-40.511-.911-44.38-5.917-91.9467-23.669-120.3386-44.949-30.3263-22.759-50.1266-53.199-59.9699-92.344-2.21902-8.762-4.32422-20.085-5.51907-30.27-1.53623-12.517-1.42244-37.04.22759-49.216 3.41385-25.547 10.92428-51.947 21.45038-75.674 10.3553-23.271 22.2469-41.25 42.73-64.5783 11.7209-13.3709 17.8089-21.3366 16.8985-22.2469-.2844-.2845-2.0483 1.4793-3.9259 3.9259-1.9345 2.3897-6.657 7.8518-10.5829 12.0623-19.0607 20.768-28.2781 32.887-38.6334 50.923-12.0623 21.052-22.9297 50.753-28.61945 77.95-6.144927 29.643-6.258722 59.002-.28449 89.613 7.11214 36.13 22.47454 66.172 46.03004 89.955 16.671 16.785 36.3575 29.701 62.4162 40.853 24.694 10.526 53.939 18.605 79.941 22.019 9.559 1.252 31.408 1.707 41.535.853 42.901-3.584 90.923-19.8 132.173-44.607 14.395-8.706 33.001-22.133 45.177-32.602 29.7-25.547 55.077-59.914 70.61-95.531 14.509-33.342 20.654-61.165 19.743-89.898-.796-24.978-6.6-46.827-19.004-71.691-20.881-41.7061-52.63-75.048-89.499-94.1087-23.385-12.0622-54.11-21.56409-81.933-25.37622-6.315-.85349-29.7-1.536256-36.414-1.08106z" fill="#000"/></svg>