<svg fill="none" height="394" viewBox="0 0 436 394" width="436" xmlns="http://www.w3.org/2000/svg"><path d="m428.535 142.611c-10.107-38.815-35.894-71.6643-69.634-92.958-18.707-11.8059-39.072-20.5745-59.72-28.3447-21.234-7.9926-42.288-16.36691-64.886-19.5116-22.052-3.06741-42.653-1.253778-64.674-.06309-1.745.06148-3.41.75055-4.688 1.94067-1.278 1.19011-2.085 2.80139-2.27 4.53796-33.292 8.88526-63.0389 22.96226-90.0715 46.74606-29.3651 25.8357-57.0242 62.6577-64.12259 101.9897-.76645 4.248-1.31488 8.516-1.72492 12.795-20.08409 74.643 5.56091 166.871 76.25171 204.969 38.0703 20.516 83.1373 21.104 125.0613 16.578 44.365-4.788 85.951-16.271 124.857-38.638 36.533-21.002 69.433-48.991 87.528-87.82 17.591-37.712 18.475-82.329 8.093-122.221zm-406.5963 28.314c6.5954-21.005 16.9413-40.642 30.5358-57.96 21.8662-28.2299 47.7155-56.581 81.0265-71.0554 39.427-17.1365 83.694-13.8783 125.199-7.7277 37.3 5.5324 74.997 22.3172 102.525 48.4746 27.274 25.9165 47.943 62.7865 53.679 100.1565 6.294 40.971-13.406 80.431-41.32 109.104-26.05 26.757-61.564 48.43-95.632 63.305-38.598 16.853-79.449 14.552-119.7 4.921-34.103-8.158-66.6965-20.001-90.8399-46.617-24.0378-26.495-39.1903-65.736-44.587-100.696-2.1982-13.863-2.4964-27.961-.8864-41.905zm133.0953 207.875c-39.239-2.454-74.7972-16.626-101.2226-46.254-20.1976-22.646-31.2938-51.024-36.1149-80.602 2.4382 7.135 5.1932 14.141 8.2165 20.976 15.8843 35.887 38.7065 65.544 74.404 83.318 23.621 11.443 48.838 19.246 74.794 23.145-6.74.016-13.433-.176-20.081-.575z" fill="#000"/></svg>