<svg fill="none" height="430" viewBox="0 0 476 430" width="476" xmlns="http://www.w3.org/2000/svg"><path d="m161.765 34.2642c8.633-2.9964 17.191-6.2578 25.915-8.9247 29.091-8.8805 58.708-13.312 89.172-9.6816 15.328 1.5653 30.349 5.3367 44.598 11.1972 11.645 5.0135 23.805 7.9327 35.9 11.3281 37.635 10.5664 69.481 29.8415 91.849 62.7158 15.516 22.854 24.585 49.468 26.253 77.041 2.139 30.474-4.382 59.314-16.263 87.213-8.043 18.863-19.925 35.34-31.068 52.359-30.219 46.116-72.299 76.819-123.356 95.875-29.345 11.112-60.648 16.127-91.997 14.739-4.8-.218-9.641.495-14.465.705-37.643 1.643-73.752-4.487-107.473-21.883-35.0868-18.104-60.1334-45.915-75.226-82.064-22.74617-54.476-19.0828-108.502 5.8886-161.396 19.3491-40.964 49.3716-72.949 86.4234-98.1696 17.775-12.1025 34.483-25.5486 52.069-37.8262 15.823-11.0395 32.851-19.82852 51.765-24.46354 13.144-3.0940352 26.738-3.788575 40.13-2.050194 10.996 1.291624 21.921 2.901814 32.181 7.363364 1.902.82796 3.659 1.98867 5.484 2.99647-.136.3864-.273.7727-.409 1.1607-1.105-.194-2.198-.4537-3.272-.7775-36.327-13.15912-71.145-9.70217-104.485 9.5539-5.718 3.3024-11.242 6.9391-16.808 10.5049-.989.7618-1.906 1.6128-2.74 2.5423zm173.069 355.5028-.056-.027zm-35.791-359.9912c-2.037-.5835-3.544-1.0944-5.088-1.443-24.454-5.5197-48.955-4.9725-73.458-.399-34.222 6.3903-65.518 19.9942-94.586 38.9159-2.996 1.9189-5.719 4.2322-8.097 6.8777-38.4803 43.7276-60.8753 94.4666-66.3778 152.5816-2.7723 26.287.4438 52.86 9.4063 77.726 20.7795 56.548 60.5305 93.215 118.5715 109.535 8.941 2.514 18.632 4.545 27.735 3.815 16.079-1.258 32.026-3.831 47.684-7.693 53.84-13.237 103.56-39.611 144.713-76.764 11.656-10.455 22.967-21.553 30.343-35.508 20.141-38.11 23.793-78.436 13.531-119.957-11.599-46.931-38.063-84.2493-75.434-114.4014-13.259-10.6973-27.481-17.8746-44.882-18.384-15.14-.4431-30.299-1.536-45.046 2.8656-4.145 1.5128-8.081 3.545-11.714 6.0481-.566.4488-1.012 1.0314-1.298 1.6954-.286.6639-.402 1.3884-.339 2.1085 1.008 3.0626 2.071 6.2483 5.765 7.5321 1.738.5259 3.234 1.6506 4.223 3.1746.988 1.524 1.405 3.3488 1.176 5.1508-.302 2.5455-1.571 4.8775-3.545 6.5133-3.154 2.2347-6.915.9683-9.418-1.5613-3.945-3.7416-7.441-7.9296-10.418-12.4794-4.911-8.1062-3.212-16.3259 3.785-22.6831 5.319-4.808 11.849-8.0746 18.886-9.4482 7.666-1.5661 15.456-2.4997 23.882-3.8182zm-145.091 385.0812c-1.104-.53-2.182-1.093-3.297-1.587-40.168-17.742-70.1798-46.249-89.7355-85.511-18.9092-37.966-22.8678-78.188-16.2536-119.635 5.7729-36.798 19.3577-71.934 39.8404-103.044 2.7772-4.236 5.6422-8.4141 8.4668-12.617l-.8825-.7412c-7.0448 6.9391-14.3515 13.6242-21.0903 20.8392-32.2827 34.538-52.7173 74.722-57.4485 122.244-3.7156 37.328 3.3908 72.46 22.5018 104.765 26.4633 44.751 67.4824 67.417 117.8944 75.287zm224.187-355.6403c27.078 23.5094 49.616 50.4533 63.513 83.9513 13.908 32.811 18.571 68.804 13.484 104.077 11.604-34.59 12.739-69.33.925-104.044-13.43-39.451-39.647-67.3146-77.927-83.9843zm-62.811 340.2773h.327l-.294-.258c-.015.083-.026.167-.037.258zm9.645-4.556.289-.128-.289-.12zm-4.707 2.113.278.168.045-.262zm9.491-4.494-.224-.147-.046.219z" fill="#000"/></svg>