<svg fill="none" height="694" viewBox="0 0 702 694" width="702" xmlns="http://www.w3.org/2000/svg"><path d="m320.527.327209c-12.574.739681-33.74 3.812131-46.713 6.770811-61.563 13.88298-103.61 38.23508-154.42 89.27218-42.8435 43.0718-69.3578 82.6148-86.9391 129.7258-1.4224 3.756-3.7552 9.502-5.2345 12.802-9.0467 20.313-15.4762 39.487-20.42625 61.165-2.44659 10.64-6.657001 34.537-6.315616 35.618.398282 1.138 1.706926 1.422 2.275896.569.1707-.341 1.30865-4.211 2.61729-8.705 3.24315-11.664 9.72948-32.944 9.95708-32.716.1138.113-.1707 3.755-.6259 8.136-1.4793 14.054-2.1052 34.65-1.4224 49.444 2.3897 55.19 14.3381 96.384 42.6162 146.966 19.7434 35.39 45.8593 70.553 73.1703 98.49 43.185 44.209 89.101 71.008 148.787 86.711 34.252 9.047 70.382 11.664 102.984 7.454 20.711-2.674 49.33-10.355 71.407-19.118 53.768-21.393 108.788-61.904 157.89-116.241 19.687-21.792 39.487-50.696 53.825-78.519 31.009-60.254 42.73-119.029 35.789-179.796-4.78-41.478-19.402-81.363-42.56-116.071-18.947-28.335-44.607-56.328-75.844-82.5579-24.694-20.8245-36.756-30.2126-50.297-39.2023-27.539-18.2641-61.108-34.2523-91.662-43.7542-30.213-9.33121-55.646-14.33817-83.014-16.272675-7.567-.5120852-28.392-.625855-35.845-.170716zm60.311 41.705891c47.623 2.1052 88.021 14.5088 130.58 39.9989 21.849 13.0864 36.869 24.921 56.044 44.152 22.816 22.873 39.828 46.486 50.354 69.871 12.29 27.253 20.369 54.962 24.694 84.663 2.845 19.573 3.186 24.466 3.129 49.216 0 20.995-.114 24.808-1.252 34.082-2.56 20.54-6.315 37.438-12.631 56.442-7.795 23.442-16.671 41.478-30.269 61.506-11.039 16.273-23.556 30.896-42.673 49.729-43.527 42.957-85.574 71.065-132.458 88.589-38.804 14.509-74.251 17.468-119.485 10.014-35.105-5.747-73.625-17.297-100.025-29.871-33.172-15.818-59.515-37.609-79.6-66.001-24.75-34.935-40.7385-81.364-46.7696-135.928-3.0725-27.823-3.1863-60.596-.2845-85.631 6.5432-56.841 28.6191-112.657 62.7011-158.744 19.345-26.116 44.266-51.492 68.106-69.4148 17.923-13.4847 26.97-18.3779 43.527-23.7832 35.276-11.4933 71.235-17.9796 105.829-19.0606 2.674-.1138 5.747-.2276 6.828-.2845s7.226.1707 13.655.4552zm-182.356 43.1852c-.342.2844-3.13 2.5603-6.316 5.0639-25.433 20.3128-51.264 48.5338-69.472 75.8438-30.0984 45.177-50.4108 99.571-56.1575 150.722-3.1862 28.221-3.1862 63.554 0 92.174 4.0397 36.585 12.2899 68.846 24.7504 97.01 3.1863 7.226 2.9018 6.941-4.2673-4.267-15.7037-24.466-29.1884-52.46-36.3575-75.674-9.5588-30.781-13.3709-59.344-12.745-95.019.5689-34.024 5.007-59.97 15.3054-89.898 6.4863-18.776 17.0692-40.226 27.3677-55.475 5.9742-8.819 31.5778-34.764 51.8908-52.573 22.36-19.63 40.966-33.5127 59.742-44.6077 6.316-3.7552 7.226-4.2104 6.259-3.3zm467.811 181.6737c-.171.455-.342.284-.342-.341-.056-.626.114-.968.285-.74.171.171.228.683.057 1.081zm4.381 19.8c2.503 14.111 3.3 22.873 3.584 39.999.626 32.432-3.47 58.946-13.712 89.443-3.414 10.014-9.331 25.035-9.786 24.637-.057-.114 1.138-3.756 2.674-8.137 6.316-17.581 11.778-39.544 14.395-57.751 2.447-17.183 2.902-24.636 2.902-47.794 0-22.929-.398-29.7-2.902-48.192-.74-5.689-1.365-10.526-1.309-10.81.171-1.024 2.845 10.924 4.154 18.605zm-20.654 156.298c-.683 1.138-.796.796-.284-.683.227-.512.512-.797.626-.626.17.114 0 .74-.342 1.309zm-423.943 189.81c27.652 10.753 65.717 20.369 94.734 24.01 36.813 4.552 71.35 1.081 108.333-10.81 8.478-2.731 26.173-9.616 30.952-12.062 1.537-.74 2.902-1.309 3.016-1.138.683.625-22.816 10.981-35.618 15.646-27.652 10.071-48.989 13.94-77.096 13.94-25.035 0-48.306-3.243-74.422-10.412-17.638-4.836-39.43-12.859-51.89-19.061-7.169-3.584-6.999-3.641 1.991-.113z" fill="#000"/></svg>