<?xml version="1.0" encoding="UTF-8"?>
<svg width="1022" height="978" xmlns="http://www.w3.org/2000/svg" xmlns:svg="http://www.w3.org/2000/svg">
 <g>
  <title>Layer 1</title>
  <path id="svg_2" fill="#FED102" fill-rule="evenodd" stroke="#ffffff" stroke-width="9" d="m500,495l8.5,6l0.29999,0.20001l0.20001,0.29999l3.5,0.29999l3.5,0.20001l0.20001,-1l0.29999,-1l0,-2.5l0,-2.5l-0.5,-2q-0.5,-2 -1.5,-5.5q-1,-3.5 -6.5,-16.5q-5.5,-13 -6,-22q-0.5,-9 0.5,-12.5q1,-3.5 3,-6q2,-2.5 7.5,-7q5.5,-4.5 14.20001,-8.29999q8.79999,-3.70001 23.79999,-4.20001q15,-0.5 25,2q10,2.5 17,6q7,3.5 12.79999,9.20001q5.70001,5.79999 10.20001,12.79999q4.5,7 8,16.5q3.5,9.5 4,19q0.5,9.5 -2.5,23.5q-3,14 -11,30q-8,16 -13.70001,22.79999q-5.79999,6.70001 -9.29999,11q-3.5,4.20001 -9,8q-5.5,3.70001 -15.5,8.70001q-10,5 -22.5,8q-12.5,3 -39.5,3.5q-27,0.5 -35.5,-1q-8.5,-1.5 -16,-4q-7.5,-2.5 -12.5,-6.5q-5,-4 -10.5,-12q-5.5,-8 -12.29999,-20.29999q-6.70001,-12.20001 -14.20001,-30.20001q-7.5,-18 -10.5,-28.5q-3,-10.5 -3.5,-24.5q-0.5,-14 0.5,-19.5q1,-5.5 4.5,-17q3.5,-11.5 9.5,-23q6,-11.5 14.5,-23q8.5,-11.5 25.5,-29q17,-17.5 19.70001,-19q2.79999,-1.5 3,-2.5q0.29999,-1 3,-2.79999q2.79999,-1.70001 14,-10q11.29999,-8.20001 23.29999,-15.20001q12,-7 26.70001,-12.79999q14.79999,-5.70001 26.29999,-8.20001q11.5,-2.5 30.5,-3q19,-0.5 25.5,0.5q6.5,1 23,5q16.5,4 32.5,12q16,8 26,15q10,7 14,11.70001q4,4.79999 5,5q1,0.29999 7.5,7.79999q6.5,7.5 14.29999,19.79999q7.70001,12.20001 11.20001,22.20001q3.5,10 7,33q3.5,23 3.5,59.5q0,36.5 -2.5,52.5q-2.5,16 -8,31q-5.5,15 -11.5,25.5q-6,10.5 -15,22q-9,11.5 -18.5,21q-9.5,9.5 -23,20q-13.5,10.5 -27.20001,19.29999q-13.79999,8.70001 -29.79999,17.20001q-16,8.5 -38,17.5q-22,9 -44.5,15q-22.5,6 -47.5,10q-25,4 -52.5,4q-27.5,0 -36,-1.5q-8.5,-1.5 -25.5,-6q-17,-4.5 -33.5,-12.5q-16.5,-8 -27.5,-15.5q-11,-7.5 -22,-17.5q-11,-10 -22.5,-23.5q-11.5,-13.5 -20.7,-29.20001q-9.3,-15.79999 -14.8,-31.29999q-5.5,-15.5 -9,-32.5q-3.5,-17 -4.5,-36.5q-1,-19.5 0.5,-40.5q1.5,-21 5.5,-41q4,-20 9.5,-36q5.5,-16 13.5,-32q8,-16 15,-27q7,-11 19,-25q12,-14 30.29999,-30.79999q18.20001,-16.70001 19.70001,-18.40002q1.5,-1.79999 15.29999,-11.79999q13.70001,-10 25,-17.2q11.20001,-7.3 24.20001,-13.3q13,-6 24.5,-6.5q11.5,-0.5 18,2q6.5,2.5 8.5,4.8q2,2.2 3,2.4q1,0.3 4.20001,6.6q3.29999,6.2 3.79999,17.7q0.5,11.5 -3,24.5q-3.5,13 -9.20001,22.5q-5.79999,9.5 -6.79999,9.70001q-1,0.29999 -5.20001,5q-4.29999,4.79999 -11.59998,9q-7.20001,4.29999 -17.70001,12.79999q-10.5,8.5 -21.5,19.5q-11,11 -17.5,19.70001q-6.5,8.79999 -7.5,9q-1,0.29999 -9.5,14.79999q-8.5,14.5 -14.70001,29.79999q-6.29999,15.20001 -10.29999,34.70001q-4,19.5 -4.5,35.5q-0.5,16 1.5,29q2,13 7,26.5q5,13.5 12.5,25.5q7.5,12 11.20001,15.5q3.79999,3.5 4,4.5q0.29999,1 3,3q2.79999,2 3,3q0.29999,1 7,6.79999q6.79999,5.70001 11.29999,8q4.5,2.20001 4.5,3.20001q0,1 11.79999,6q11.70001,5 28,8.79999q16.20001,3.70001 32.20001,4.20001q16,0.5 35,-2.5q19,-3 30.5,-7q11.5,-4 23,-9.5q11.5,-5.5 14.5,-7q3,-1.5 8.5,-5q5.5,-3.5 17.5,-13q12,-9.5 15.5,-13.20001q3.5,-3.79999 4.5,-4q1,-0.29999 6,-6q5,-5.79999 6.20001,-6.29999q1.29999,-0.5 13.79999,-17q12.5,-16.5 21,-33.5q8.5,-17 13.5,-34q5,-17 7,-33.5q2,-16.5 1,-34q-1,-17.5 -3.29999,-19.5q-2.20001,-2 -2.40002,-3q-0.29999,-1 -6.29999,-8q-6,-7 -12.5,-12.5q-6.5,-5.5 -15.79999,-10.70001q-9.20001,-5.29999 -19.70001,-8.29999q-10.5,-3 -23.5,-3.5q-13,-0.5 -26,2q-13,2.5 -26.5,8q-13.5,5.5 -26.5,12.5q-13,7 -21.79999,14.29999q-8.70001,7.20001 -12.40002,10.70001q-3.79999,3.5 -5.79999,7.29999q-2,3.70001 -4.79999,10.40002q-2.70001,6.79999 -3.20001,18.79999q-0.5,12 1,17.5q1.5,5.5 5.5,14.5q4,9 9,14q5,5 13.5,11z"/>
  <path id="svg_3" fill="#FED102" fill-rule="evenodd" stroke="#ffffff" stroke-width="9" d="m671,713q8,-0.5 14.5,2q6.5,2.5 13.5,8.5q7,6 15.20001,16.29999q8.29999,10.20001 17.59998,25.40002q9.20001,15.29999 31.40002,64q22.29999,48.79999 22.79999,54.79999q0.5,6 -0.5,9.5q-1,3.5 -5.70001,8.70001q-4.79999,5.29999 -10.79999,8.29999q-6,3 -12.5,3.5q-6.5,0.5 -10.5,-1q-4,-1.5 -17,-12.79999q-13,-11.20001 -17,-16.40002q-4,-5.29999 -15.79999,-20.59998q-11.70001,-15.20001 -23.20001,-35.20001q-11.5,-20 -21.5,-45q-10,-25 -10,-37.5q0,-12.5 3.29999,-18q3.20001,-5.5 5,-6.5q1.70001,-1 7.40002,-4.20001q5.79999,-3.29999 13.79999,-3.79999z"/>
  <path id="svg_4" fill="#FED102" fill-rule="evenodd" stroke="#ffffff" stroke-width="9" d="m558.5,11.8l5.5,-4.8l7.5,0l7.5,0l0,0.2l0,0.3l2,0.5l2,0.5l1,0.5l1,0.5l1,0.5q1,0.5 3,1.5q2,1 4.5,3.5q2.5,2.5 6.29999,9.2q3.70001,6.8 3.70001,26.3q0,19.5 -2,37q-2,17.5 -5.5,38.5q-3.5,21 -9,40.5q-5.5,19.5 -9,27q-3.5,7.5 -9.20001,14q-5.79999,6.5 -9.29999,7.7q-3.5,1.3 -10.5,1.3q-7,0 -13,-3.3q-6,-3.2 -7.79999,-6.2q-1.70001,-3 -4.20001,-10q-2.5,-7 -3,-33q-0.5,-26 1,-41q1.5,-15 5,-33q3.5,-18 9,-35q5.5,-17 11.20001,-27.8q5.79999,-10.7 11.29999,-15.4z"/>
  <path id="svg_5" fill="#FED102" fill-rule="evenodd" stroke="#ffffff" stroke-width="9" d="m9.2,475.79999l-0.2,-0.29999l-0.2,-0.29999l-0.3,-0.20001l-0.3,-0.20001l-0.2,-0.29999l-0.2,-0.29999l-0.3,-0.20001l-0.3,-0.20001l-0.2,-0.29999l-0.2,-0.29999l-0.3,-0.20001l-0.5,-1.5l-0.5,-1.5l-0.3,0l-0.2,0l0,-5.5l0,-5.5l0.2,0l0.3,0l0.5,-1.5l0.5,-1.5l0.5,-1l0.5,-1l0.5,-1l0.5,-1l7.3,-6.20001q7.2,-6.29999 24.7,-11.79999q17.5,-5.5 33.5,-7q16,-1.5 43,-0.5q27,1 44.5,5q17.5,4 25.7,7.70001q8.3,3.79999 12.8,6.79999q4.5,3 8,8.5q3.5,5.5 3,11q-0.5,5.5 -2.8,9.29999q-2.2,3.70001 -10.7,9.20001q-8.5,5.5 -20,9q-11.5,3.5 -33,6q-21.5,2.5 -44,1.5q-22.5,-1 -38.5,-4q-16,-3 -30.5,-8.29999q-14.5,-5.20001 -14.5,-6.20001q0,-1 -3.8,-3.5q-3.7,-2.5 -4,-2.70001z"/>
  <path id="svg_6" fill="#FED102" fill-rule="evenodd" stroke="#ffffff" stroke-width="9" d="m796.3316,589q13.59699,-0.53998 25.625,3.23999q12.02808,3.78003 25.625,11.34003q13.59699,7.55999 32.94648,20.19598q19.34948,12.74402 19.34948,13.82398q0,1.08001 2.61481,2.37603q2.61475,1.404 6.27551,3.23999q3.66071,1.94397 3.86988,3.02399q0.31378,1.08002 25.10205,19.224q24.89282,18.03601 28.86731,22.67999q3.86993,4.53601 4.39288,12.09601q0.52295,7.56 -2.61481,17.28003q-3.13775,9.71997 -7.63519,14.90399q-4.39288,5.07599 -12.76019,5.07599q-8.36737,0 -23.0102,-7.56q-14.64288,-7.55999 -47.06634,-25.38q-32.42346,-17.82001 -38.17603,-20.73602q-5.75256,-3.02399 -5.75256,-4.10395q0,-1.08001 -1.0459,-1.29602q-1.04589,-0.32403 -25.625,-15.98401q-24.5791,-15.65997 -30.01788,-20.30401q-5.54333,-4.53601 -8.15814,-8.85596q-2.61481,-4.32001 -3.13776,-12.42004q-0.52295,-8.09998 0.52295,-10.79999q1.0459,-2.70001 3.13776,-7.02002q2.09186,-4.32001 7.63519,-8.85602q5.43878,-4.64398 19.03571,-5.18396l-0.00001,0z"/>
  <path id="svg_7" fill="#FED102" fill-rule="evenodd" stroke="#ffffff" stroke-width="9" d="m224.05556,29.83511l0.22221,-0.33511l3.33333,0q3.33334,0 8.33334,2.79262q5,2.79262 11.1111,8.93638q6.11112,6.14377 18.55557,23.68143q12.55555,17.64937 15.11109,22.67609q2.44446,5.02673 3.55557,5.02673q1.11112,0 7.22223,12.06412q6.11112,11.95242 16.33335,35.0753q10.33331,23.2346 15.88888,42.78297q5.55554,19.54834 7.77777,34.62848q2.22223,15.08014 0,20.66541q-2.22223,5.58523 -5.88888,8.04272q-3.55558,2.56922 -8.55558,3.12775q-5,0.55853 -11.11108,-1.11704q-6.11112,-1.67556 -12.22223,-5.80865q-6.11112,-4.24478 -6.33334,-5.36185q-0.33335,-1.11703 -5.11109,-5.36181q-4.66669,-4.13309 -17.44446,-18.65473q-12.7778,-14.5216 -21.66668,-27.92621q-8.88889,-13.40457 -11.66666,-18.43127q-2.77779,-5.02673 -7.00001,-14.29822q-4.1111,-9.1598 -8.55555,-25.35701q-4.44444,-16.1972 -4.44444,-37.42113q0,-21.2239 3.33333,-35.18702q3.33333,-13.96311 6.11111,-18.98982q2.77777,-5.02672 3.11112,-5.25013z"/>
  <path id="svg_8" fill="#FED102" fill-rule="evenodd" stroke="#ffffff" stroke-width="9" d="m1005.00049,413.13895l3.43713,7.37002l0.52082,4.33533l0.52075,4.33533l0.3125,0l0.20831,0l0,2.70959l0,2.70957l-0.20831,0l-0.3125,0l-0.52075,3.79342l-0.52082,3.79343l-0.52075,1.08383q-0.52081,1.08383 -1.56238,3.2515q-1.04156,2.16766 -4.4787,5.63592q-3.33307,3.57663 -13.22796,7.91196q-9.89496,4.33536 -31.24713,10.29642q-21.35218,5.96109 -60.41108,13.54791q-39.05889,7.58682 -57.80719,7.58682q-18.74823,0 -26.03924,-3.25149q-7.29102,-3.2515 -13.01965,-7.04493q-5.72864,-3.79339 -10.72815,-9.97125q-4.89539,-6.28622 -4.89539,-13.87304q0,-7.58683 4.16626,-11.92215q4.16632,-4.33533 10.41571,-8.12876q6.24945,-3.79343 24.68524,-10.51318q18.53998,-6.82813 41.97528,-12.24729q23.43537,-5.41916 46.87067,-8.67068q23.43536,-3.2515 49.99536,-4.87723q26.56006,-1.62576 32.80951,1.62573q6.24939,3.2515 9.58246,10.51322z"/>
  <path id="svg_9" fill="#FED102" fill-rule="evenodd" stroke="#ffffff" stroke-width="9" d="m526.76843,964.75952l-0.33612,0.2019l-0.33606,0.20197l-0.22406,0.30286l-1.1203,0.50482l-1.1203,0.50482l-1.1203,0.50482l-1.1203,0.50482l-1.1203,0.50483l-1.1203,0.50482l0,0.30285l0,0.20197l-5.6015,0l-5.60153,0l0,-0.20197l0,-0.30285l-1.1203,-0.50482l-1.1203,-0.50483l-1.1203,-0.50482l-1.1203,-0.50482l-0.22406,-0.30286l-0.33609,-0.20196l-0.33606,-0.20191l-0.22409,-0.30291l-1.1203,-0.30286q-1.1203,-0.20196 -4.70526,-5.25012q-3.69699,-5.04822 -7.0579,-13.63013q-3.3609,-8.58191 -6.16165,-20.69757q-2.80075,-12.11566 -2.80075,-53.00604q0,-40.89038 4.4812,-63.10242q4.4812,-22.21203 8.9624,-31.80359q4.48121,-9.59161 6.38575,-12.41858q2.01651,-2.72601 3.13681,-3.02893q1.1203,-0.2019 1.68045,-1.41351q0.56015,-1.3125 6.7218,-1.3125q6.16168,0 11.76318,3.53375q5.6015,3.53369 9.85865,8.27906q4.14508,4.84625 9.18646,15.95227q5.04132,11.10601 8.9624,32.30841q3.92108,21.20239 3.3609,44.92889q-0.56018,23.72656 -3.92108,42.40485q-3.3609,18.67834 -7.28192,29.27954q-3.92108,10.60119 -7.8421,16.659q-3.92109,6.05786 -6.49775,8.88482q-2.46466,2.72602 -2.68872,3.02893z"/>
  <path id="svg_10" fill="#FED102" fill-rule="evenodd" stroke="#ffffff" stroke-width="9" d="m359.50665,744q7.49781,-0.5108 11.78223,2.04321q4.28445,2.55408 7.28354,7.35572q2.89203,4.90374 3.42758,14.09839q0.53555,9.19458 -1.0711,19.41076q-1.60666,10.21625 -6.96222,25.54059q-5.35556,15.32428 -14.99558,34.73511q-9.63998,19.41083 -22.172,37.79998q-12.63909,18.38923 -13.7102,18.59357q-1.07111,0.30646 -5.89111,6.1297q-4.82001,5.92542 -7.49778,7.76428q-2.67779,1.73682 -12.31778,8.37732q-9.64001,6.64057 -16.60223,7.15137q-6.96222,0.5108 -10.3898,-1.22595q-3.53464,-1.83893 -6.2124,-5.92542q-2.6778,-4.08648 -2.6778,-18.89996q0,-14.81354 4.28446,-30.13788q4.28442,-15.32428 10.71109,-31.67023q6.42666,-16.34594 16.06668,-33.20275q9.63998,-16.85675 21.74353,-32.69184q11.99646,-15.83514 17.35202,-20.12597q5.35556,-4.39295 12.85333,-9.5011q7.49777,-5.1081 14.99554,-5.6189z"/>
  <path id="svg_11" fill="#FED102" fill-rule="evenodd" stroke="#ffffff" stroke-width="9" d="m36.54774,202.2q12.93226,0.38585 38.33493,9.38902q25.40267,9.00319 47.91866,20.57871q22.51601,11.57551 35.44827,19.67837q13.04773,7.97424 28.4048,18.52081q15.24161,10.6752 18.7056,12.86173q3.46401,2.31509 5.77333,5.14465q2.30934,2.95819 10.16107,11.57553q7.73627,8.74594 11.77761,15.81986q4.04132,7.07391 5.77333,12.21859q1.73199,5.14469 1.15466,12.2186q-0.57733,7.07394 -3.23308,11.96134q-2.54025,4.75885 -8.31358,8.61737q-5.77333,3.85849 -20.20666,3.21542q-14.43334,-0.6431 -34.64,-9.00317q-20.20667,-8.36008 -33.13893,-16.46292q-13.04773,-7.97431 -33.02348,-22.3794q-19.86027,-14.53369 -31.63787,-25.20886q-11.89307,-10.5466 -24.01706,-24.69446q-12.124,-14.14786 -20.20667,-28.29571q-8.08266,-14.14785 -8.08266,-25.08028q0,-10.93243 13.04773,-10.6752z"/>
  <path id="svg_12" fill="#FED102" fill-rule="evenodd" stroke="#ffffff" stroke-width="9" d="m864.63397,153q2.76477,-0.60164 11.61212,0.60162q8.84735,1.20325 12.71808,4.21138q3.87073,3.00814 9.62152,10.58863q5.86133,7.46016 6.41431,17.08618q0.55298,9.62601 -0.55298,12.03251q-1.10589,2.4065 -5.5296,7.82114q-4.42364,5.41463 -11.39093,12.03252q-6.85669,6.61789 -7.07788,7.82113q-0.33179,1.20326 -12.16516,12.27318q-11.94391,11.19025 -15.81458,15.64229q-3.87073,4.57234 -19.90655,16.36421q-16.03583,11.67154 -32.62464,20.69595q-16.58874,9.02439 -29.30682,10.82926q-12.71808,1.80487 -19.90656,0q-7.18847,-1.80487 -11.83337,-5.77561q-4.75543,-3.8504 -8.07318,-8.66342q-3.31775,-4.81302 -3.31775,-12.63415q0,-7.82114 3.31775,-13.23575q3.31775,-5.41464 5.86139,-7.82115q2.43298,-2.40651 5.97198,-7.21952q3.64948,-4.813 18.35822,-17.80813q14.59814,-12.87479 16.25702,-14.92032q1.65887,-2.16586 5.19781,-3.97074q3.64954,-1.80488 32.40344,-22.26016q28.75391,-20.45529 37.93299,-26.71219q9.06854,-6.37724 11.83337,-6.97886z"/>
  <path id="svg_13" fill="#FED102" fill-rule="evenodd" stroke="#ffffff" stroke-width="9" d="m203.59155,636q13.85915,-0.62378 17.32395,0.99799q3.46478,1.49707 5.54365,4.6159q1.96338,3.11878 2.54085,11.85144q0.57747,8.73267 -1.73239,13.72278q-2.30986,4.99011 -8.0845,14.34656q-5.77466,9.35644 -18.82537,22.08117q-12.93521,12.84949 -18.13238,16.21784q-5.19719,3.49304 -5.19719,4.7406q0,1.2475 -9.47041,6.86139q-9.58593,5.61383 -24.94649,14.09698q-15.24507,8.35846 -26.79436,12.10102q-11.5493,3.74255 -21.3662,4.36633q-9.8169,0.62378 -15.01408,-1.2475q-5.19719,-1.87134 -8.66197,-4.99011q-3.46479,-3.11883 -4.8507,-7.73468q-1.50141,-4.7406 -0.92395,-9.10693q0.57747,-4.36634 4.04225,-10.60395q3.46479,-6.23761 18.1324,-22.20593q14.78311,-15.84357 25.75492,-24.20203q10.97184,-8.48315 10.97184,-9.73065q0,-1.24756 7.85353,-5.61389q7.73802,-4.36633 20.44224,-11.85144q12.70423,-7.48517 25.06197,-12.72479q12.47323,-5.36432 26.3324,-5.9881l-0.00001,0z"/>
 </g>
</svg>